# xmcd
#
# Track frame offsets:
#	150
#	10536
#	25633
#	39340
#	51957
#	65919
#	80782
#	93467
#	108247
#	118156
#	132028
#	147801
#	162768
#	178123
#	193397
#	204885
#
# Disc length: 2928 seconds
#
# Revision: 1
# Processed by: cddbd v1.5.2PL0 Copyright (c) Steve Scherf et al.
# Submitted via: EasyCDDAExtractor 15.3.0.1
#
DISCID=d80b6e10
DTITLE=The Music Of Nashville - Season 5, Volume 2
DYEAR=2017
DGENRE=Country
TTITLE0=Connie Britton, Clare Bowen, Charles Esten, Sam Palladio, Hayden Panet
TTITLE0=tiere, Chris Carmack, Jonathan Jackson, Lennon and Maisy - You're Mine
TTITLE1=Chris Carmack - By Your Side
TTITLE2=Jonathan Jackson - Eye Of The Storm
TTITLE3=Lennon and Maisy - Back Again
TTITLE4=Will Chase - Wide Open
TTITLE5=Lennon Stella - Saved
TTITLE6=Clare Bowen and Sam Palladio - The Hell Of It Is
TTITLE7=Joseph David-Jones - Before You
TTITLE8=Rhiannon Giddens - Sourwood Mountain
TTITLE9=Connie Britton and Charles Esten - Can't Remember Never Loving You
TTITLE10=Charles Esten, Lennon and Maisy - A Life That's Good
TTITLE11=Lennon and Maisy - In Love
TTITLE12=Joseph David-Jones - This World Don't Owe Me Nothin'
TTITLE13=Rhiannon Giddens - Can't Nobody Do Me Like Jesus
TTITLE14=Lennon and Maisy - Your Best (Acoustic Version)
TTITLE15=Jessie Early - I'll Fly Away
EXTD=
EXTT0=
EXTT1=
EXTT2=
EXTT3=
EXTT4=
EXTT5=
EXTT6=
EXTT7=
EXTT8=
EXTT9=
EXTT10=
EXTT11=
EXTT12=
EXTT13=
EXTT14=
EXTT15=
PLAYORDER=
